<svg xmlns="http://www.w3.org/2000/svg" width="24" height="35"><g data-name="Rounded Rectangle 1" fill="none"><path d="M12 .001c6.627 0 12 5.82 12 13v9c0 7.18-5.373 13-12 13s-12-5.82-12-13v-9c0-7.181 5.372-13 12-13z"/><path d="M12 2C6.486 2 2 6.935 2 13v9c0 6.065 4.486 11 10 11s10-4.935 10-11v-9c0-6.065-4.486-11-10-11m0-2c6.627 0 12 5.82 12 13v9c0 7.18-5.373 13-12 13-6.628 0-12-5.82-12-13v-9C0 5.82 5.372 0 12 0z" fill="#fff"/></g><path data-name="|" d="M12 8.001a1 1 0 011 1v4a1 1 0 01-2 0v-4a1 1 0 011-1z" fill="#fff"/></svg>